<svg width="119" height="157" viewBox="0 0 119 157" fill="none" xmlns="http://www.w3.org/2000/svg">
<path fill-rule="evenodd" clip-rule="evenodd" d="M71.9174 37.8487C71.1422 38.5821 70.7552 39.6407 70.7552 41.0239C70.7552 42.4082 71.1422 43.4613 71.9174 44.1845C72.6914 44.9076 73.6454 45.2684 74.7787 45.2684C75.9113 45.2684 76.8604 44.9076 77.623 44.1845C78.3867 43.4613 78.7683 42.4082 78.7683 41.0239C78.7683 39.6407 78.3867 38.5821 77.623 37.8487C76.8604 37.1158 75.9113 36.7486 74.7787 36.7486C73.6454 36.7486 72.6914 37.1158 71.9174 37.8487ZM79.93 33.232C81.4442 33.9449 82.6355 34.9727 83.5025 36.315C84.3701 37.6577 84.8036 39.227 84.8036 41.0238C84.8036 42.8212 84.3701 44.391 83.5025 45.7332C82.6355 47.076 81.4442 48.1033 79.93 48.8162C78.4152 49.5286 76.6981 49.885 74.7787 49.885C72.8593 49.885 71.1368 49.5286 69.6105 48.8162C68.0842 48.1033 66.8875 47.076 66.0199 45.7332C65.1535 44.391 64.7194 42.8212 64.7194 41.0238C64.7194 39.227 65.1535 37.6577 66.0199 36.315C66.8875 34.9727 68.0842 33.9449 69.6105 33.232C71.1368 32.5196 72.8593 32.1637 74.7787 32.1637C76.6981 32.1637 78.4152 32.5196 79.93 33.232Z" fill="white"/>
<path fill-rule="evenodd" clip-rule="evenodd" d="M116.591 34.1589C117.846 35.4895 118.474 37.3376 118.474 39.7046V49.885H113.049V40.333C113.049 39.2233 112.745 38.3592 112.139 37.7406C111.533 37.1232 110.708 36.8142 109.666 36.8142C108.581 36.8142 107.724 37.144 107.097 37.8041C106.469 38.4637 106.156 39.3902 106.156 40.5846V49.885H100.699V40.333C100.699 39.2233 100.401 38.3592 99.8051 37.7406C99.2091 37.1232 98.3897 36.8142 97.3477 36.8142C96.2623 36.8142 95.4013 37.139 94.7625 37.7882C94.1248 38.4374 93.8054 39.3699 93.8054 40.5846V49.885H88.3478V32.3524H93.8054V35.3369C94.2731 34.3525 94.9908 33.5775 95.959 33.012C96.9277 32.4465 98.0603 32.1637 99.3585 32.1637C100.719 32.1637 101.922 32.4727 102.965 33.0907C104.007 33.7088 104.794 34.5937 105.326 35.7455C105.943 34.6566 106.789 33.7875 107.863 33.1378C108.937 32.4886 110.123 32.1637 111.421 32.1637C113.613 32.1637 115.336 32.8288 116.591 34.1589Z" fill="white"/>
<path fill-rule="evenodd" clip-rule="evenodd" d="M72.8784 58.378C74.1338 59.7086 74.7615 61.5567 74.7615 63.9238V74.1041H69.3361V64.5522C69.3361 63.4419 69.0328 62.5783 68.4263 61.9598C67.8202 61.3423 66.9954 61.0327 65.9533 61.0327C64.8684 61.0327 64.0113 61.3631 63.3842 62.0232C62.7565 62.6828 62.4432 63.6093 62.4432 64.8037V74.1041H56.9857V64.5522C56.9857 63.4419 56.688 62.5783 56.0919 61.9598C55.4965 61.3423 54.6771 61.0327 53.6351 61.0327C52.5497 61.0327 51.6887 61.3582 51.0499 62.0068C50.4122 62.6565 50.0922 63.589 50.0922 64.8037V74.1041H44.6353V56.571H50.0922V59.5561C50.5605 58.5716 51.2782 57.7966 52.2464 57.2311C53.2151 56.6656 54.3477 56.3828 55.6459 56.3828C57.0068 56.3828 58.2094 56.6918 59.252 57.3093C60.2941 57.9279 61.0812 58.8128 61.6134 59.9646C62.2299 58.8757 63.0759 58.0061 64.1502 57.3563C65.2245 56.7077 66.4104 56.3828 67.708 56.3828C69.8999 56.3828 71.6225 57.0479 72.8784 58.378Z" fill="white"/>
<path fill-rule="evenodd" clip-rule="evenodd" d="M83.7312 62.0678C82.956 62.8012 82.569 63.8598 82.569 65.2435C82.569 66.6273 82.956 67.681 83.7312 68.4036C84.5053 69.1268 85.4593 69.4875 86.5926 69.4875C87.7259 69.4875 88.6744 69.1268 89.437 68.4036C90.2007 67.681 90.5823 66.6273 90.5823 65.2435C90.5823 63.8598 90.2007 62.8012 89.437 62.0678C88.6744 61.3349 87.7259 60.9677 86.5926 60.9677C85.4593 60.9677 84.5053 61.3349 83.7312 62.0678ZM91.7441 57.4516C93.2583 58.164 94.4502 59.1918 95.3166 60.5341C96.1843 61.8768 96.6178 63.4466 96.6178 65.2435C96.6178 67.0403 96.1843 68.6101 95.3166 69.9523C94.4502 71.2956 93.2583 72.3229 91.7441 73.0353C90.2298 73.7477 88.512 74.1041 86.5926 74.1041C84.6732 74.1041 82.9506 73.7477 81.4249 73.0353C79.8979 72.3229 78.7012 71.2956 77.8342 69.9523C76.9671 68.6101 76.5336 67.0403 76.5336 65.2435C76.5336 63.4466 76.9671 61.8768 77.8342 60.5341C78.7012 59.1918 79.8979 58.164 81.4249 57.4516C82.9506 56.7387 84.6732 56.3828 86.5926 56.3828C88.512 56.3828 90.2298 56.7387 91.7441 57.4516Z" fill="white"/>
<path fill-rule="evenodd" clip-rule="evenodd" d="M116.459 58.3938C117.802 59.7348 118.474 61.5784 118.474 63.9241V74.1041H112.374V64.5525C112.374 63.3794 112.023 62.4627 111.322 61.8026C110.62 61.1431 109.687 60.8133 108.522 60.8133C107.285 60.8133 106.304 61.1589 105.578 61.8502C104.853 62.5415 104.491 63.5259 104.491 64.8035V74.1041H98.3899V56.5715H104.491V59.7764C105.061 58.729 105.911 57.9021 107.041 57.294C108.17 56.6869 109.496 56.3828 111.018 56.3828C113.302 56.3828 115.115 57.0539 116.459 58.3938Z" fill="white"/>
<path fill-rule="evenodd" clip-rule="evenodd" d="M59.7645 42.6252C58.488 44.3254 56.5722 45.3003 54.5097 45.3003C50.8319 45.3003 47.84 42.1895 47.84 38.3659C47.84 34.5423 50.8319 31.4314 54.5097 31.4314C57.0583 31.4314 59.4185 32.9826 60.5225 35.383L60.6455 35.6508L64.7194 32.5394L64.614 32.3492C62.5405 28.5913 58.6682 26.2566 54.5097 26.2566C48.0872 26.2566 42.8632 31.689 42.8632 38.3659C42.8632 45.0433 48.0872 50.4757 54.5097 50.4757C58.1722 50.4757 61.5485 48.7355 63.7742 45.7012L63.9197 45.5025L59.9057 42.4368L59.7645 42.6252Z" fill="white"/>
<mask id="mask0" mask-type="alpha" maskUnits="userSpaceOnUse" x="44" y="0" width="19" height="25">
<path fill-rule="evenodd" clip-rule="evenodd" d="M44.6856 0.724396H62.2485V24.1469H44.6856V0.724396Z" fill="white"/>
</mask>
<g mask="url(#mask0)">
<path fill-rule="evenodd" clip-rule="evenodd" d="M50.1261 11.4249H53.4987C54.5808 11.4249 55.3755 11.1764 55.885 10.6799C56.3939 10.1828 56.6486 9.44874 56.6486 8.47652C56.6486 7.54869 56.3889 6.81981 55.8689 6.28988C55.3495 5.75994 54.5592 5.49468 53.4987 5.49468H50.1261V11.4249ZM56.2349 24.1467L51.3671 15.3009H50.126V24.1467H44.6856V0.723907H53.976C55.7575 0.723907 57.2639 1.04452 58.4938 1.6846C59.7238 2.32583 60.6464 3.20348 61.2617 4.31872C61.8769 5.43395 62.1843 6.70949 62.1843 8.14534C62.1843 9.84586 61.7335 11.2927 60.8325 12.4846C59.9304 13.6777 58.6212 14.4948 56.9028 14.9365L62.2485 24.1467H56.2349Z" fill="white"/>
</g>
<path fill-rule="evenodd" clip-rule="evenodd" d="M73.6281 10.355C74.5793 10.355 75.3767 10.6392 76.0212 11.2071C76.4753 11.6072 76.7606 12.1513 76.8842 12.8329H70.2097C70.3891 12.1686 70.6981 11.6261 71.1555 11.2227C71.8099 10.6446 72.6343 10.355 73.6281 10.355ZM82.4407 14.5683C82.4407 12.916 82.0765 11.4551 81.3471 10.1846C80.6182 8.91407 79.588 7.9283 78.2565 7.22618C76.925 6.52406 75.3822 6.17245 73.6281 6.17245C71.8944 6.17245 70.3521 6.52891 68.9997 7.24128C67.6467 7.95364 66.5955 8.97609 65.8456 10.3086C65.0946 11.6406 64.7194 13.2158 64.7194 15.0331C64.7194 16.8299 65.1002 18.3997 65.8611 19.7425C66.622 21.0853 67.6732 22.1126 69.0157 22.8249C70.3571 23.5378 71.8944 23.8938 73.6281 23.8938C75.1069 23.8938 76.4494 23.6204 77.6539 23.073C78.8585 22.5256 79.8517 21.7718 80.6336 20.8113C81.096 20.2435 81.4503 19.6249 81.7206 18.967L76.5024 17.5428H76.4179C76.248 18.1625 75.8992 18.6688 75.3712 19.0609C74.8431 19.4535 74.1771 19.6492 73.3743 19.6492C72.423 19.6492 71.6411 19.3656 71.0286 18.7972C70.4156 18.2299 70.0773 17.2948 70.0139 15.9935H82.2824C82.3878 15.4775 82.4407 15.0024 82.4407 14.5683Z" fill="white"/>
<mask id="mask1" mask-type="alpha" maskUnits="userSpaceOnUse" x="0" y="54" width="37" height="72">
<path fill-rule="evenodd" clip-rule="evenodd" d="M0.922729 54.2013H36.8191V125.994H0.922729V54.2013Z" fill="white"/>
</mask>
<g mask="url(#mask1)">
<path fill-rule="evenodd" clip-rule="evenodd" d="M20.8751 90.0972C20.8751 81.2917 28.0136 74.1532 36.819 74.1532V54.2013C16.994 54.2013 0.922607 70.2722 0.922607 90.0972C0.922607 109.922 16.994 125.994 36.819 125.994V106.041C28.0136 106.041 20.8751 98.9026 20.8751 90.0972Z" fill="white"/>
</g>
<path fill-rule="evenodd" clip-rule="evenodd" d="M80.6686 120.18C80.6686 100.279 64.5359 84.1462 44.6353 84.1462V104.175C53.4743 104.175 60.64 111.34 60.64 120.18C60.64 129.019 53.4743 136.184 44.6353 136.184V156.213C64.5359 156.213 80.6686 140.081 80.6686 120.18Z" fill="white"/>
</svg>
